<svg xmlns="http://www.w3.org/2000/svg" xmlns:xlink="http://www.w3.org/1999/xlink" viewBox="0 0 36 36"><defs><style>.cls-1{fill:url(#未命名的渐变_55);}.cls-2{fill:#fff;}</style><linearGradient id="未命名的渐变_55" x1="18" x2="18" y2="36" gradientUnits="userSpaceOnUse"><stop offset="0" stop-color="#ffaf90"/><stop offset="1" stop-color="#ffc700"/></linearGradient></defs><title>icon_cog</title><g id="图层_2" data-name="图层 2"><g id="图层_1-2" data-name="图层 1"><rect class="cls-1" width="36" height="36" rx="9" ry="9"/><path class="cls-2" d="M20,20V16H18.71a7.69,7.69,0,0,0-.56-1.32l.92-.92-2.83-2.83-.92.92A7.69,7.69,0,0,0,14,11.29V10H10v1.29a6.77,6.77,0,0,0-1.33.55l-.91-.91L4.93,13.76l.91.91A6.77,6.77,0,0,0,5.29,16H4v4H5.29a7.69,7.69,0,0,0,.56,1.32l-.92.92,2.83,2.83.92-.92a7.69,7.69,0,0,0,1.32.56V26h4V24.71a6.77,6.77,0,0,0,1.33-.55l.91.91,2.83-2.83-.91-.91A6.77,6.77,0,0,0,18.71,20Zm-8,3a5,5,0,1,1,5-5A5,5,0,0,1,12,23Z"/><path class="cls-2" d="M29,12.25V9.75h-.81a4,4,0,0,0-.35-.82l.58-.58L26.65,6.58l-.58.58a4,4,0,0,0-.82-.35V6h-2.5v.81a4.66,4.66,0,0,0-.83.34l-.57-.57L19.58,8.35l.57.57a4.66,4.66,0,0,0-.34.83H19v2.5h.81a4,4,0,0,0,.35.82l-.58.58,1.77,1.77.58-.58a4,4,0,0,0,.82.35V16h2.5v-.81a4.66,4.66,0,0,0,.83-.34l.57.57,1.77-1.77-.57-.57a4.66,4.66,0,0,0,.34-.83Zm-5,1.88A3.13,3.13,0,1,1,27.13,11,3.12,3.12,0,0,1,24,14.13Z"/><path class="cls-2" d="M32,25.5v-3H31a4.83,4.83,0,0,0-.42-1l.69-.69L29.18,18.7l-.69.69a4.83,4.83,0,0,0-1-.42V18h-3v1a5.13,5.13,0,0,0-1,.41l-.68-.68L20.7,20.82l.68.68a5.13,5.13,0,0,0-.41,1H20v3h1a4.83,4.83,0,0,0,.42,1l-.69.69,2.12,2.12.69-.69a4.83,4.83,0,0,0,1,.42v1h3V29a5.13,5.13,0,0,0,1-.41l.68.68,2.12-2.12-.68-.68a5.13,5.13,0,0,0,.41-1Zm-6,2.25A3.75,3.75,0,1,1,29.75,24,3.75,3.75,0,0,1,26,27.75Z"/></g></g></svg>