<svg xmlns="http://www.w3.org/2000/svg" xmlns:xlink="http://www.w3.org/1999/xlink" viewBox="0 0 36 36"><defs><style>.cls-1{fill:url(#未命名的渐变_67);}.cls-2{fill:#fff;}</style><linearGradient id="未命名的渐变_67" x1="18" y1="36" x2="18" gradientUnits="userSpaceOnUse"><stop offset="0" stop-color="#f34483"/><stop offset="1" stop-color="#ff8f83"/></linearGradient></defs><title>icon_user_setting</title><g id="图层_2" data-name="图层 2"><g id="图层_1-2" data-name="图层 1"><rect class="cls-1" width="36" height="36" rx="9" ry="9"/><path class="cls-2" d="M18,11.73a4.37,4.37,0,1,0-4.36,4.36A4.37,4.37,0,0,0,18,11.73Zm-4.36,4.36A7.68,7.68,0,0,0,6,23.73H21.27A7.67,7.67,0,0,0,13.64,16.09Z"/><path class="cls-2" d="M30,16.91V14.18h-.88a5.92,5.92,0,0,0-.38-.9l.63-.63-1.93-1.93-.63.63a5.52,5.52,0,0,0-.9-.38v-.88H23.18V11a4.5,4.5,0,0,0-.9.38l-.63-.63-1.93,1.93.63.63a4.5,4.5,0,0,0-.38.9h-.88v2.73H20a5.52,5.52,0,0,0,.38.9l-.63.63,1.93,1.93.63-.63a5.92,5.92,0,0,0,.9.38V21h2.73v-.88a4.86,4.86,0,0,0,.91-.38l.62.63,1.93-1.93-.63-.62a4.86,4.86,0,0,0,.38-.91Zm-5.45,2a3.41,3.41,0,1,1,3.4-3.4A3.4,3.4,0,0,1,24.55,19Z"/><rect class="cls-2" x="6" y="26.45" width="24" height="2.18"/></g></g></svg>