<svg xmlns="http://www.w3.org/2000/svg" xmlns:xlink="http://www.w3.org/1999/xlink" viewBox="0 0 36 36"><defs><style>.cls-1{fill:url(#未命名的渐变_20);}.cls-2{fill:#fff;}</style><linearGradient id="未命名的渐变_20" x1="18" x2="18" y2="36" gradientUnits="userSpaceOnUse"><stop offset="0" stop-color="#8b3fff"/><stop offset="1" stop-color="#2d8cf0"/></linearGradient></defs><title>icon_project</title><g id="图层_2" data-name="图层 2"><g id="图层_1-2" data-name="图层 1"><rect class="cls-1" width="36" height="36" rx="9" ry="9"/><path class="cls-2" d="M29.33,26.67H28a.67.67,0,0,1-.67-.67V7.33A1.33,1.33,0,0,0,26,6H10A1.33,1.33,0,0,0,8.67,7.33V26a.67.67,0,0,1-.67.67H6.67a.67.67,0,0,0-.67.66V30H30V27.33A.67.67,0,0,0,29.33,26.67ZM22,8.58h2.67v2.67H22Zm0,4h2.67v2.67H22Zm0,4h2.67v2.67H22Zm-8,2.67H11.33V16.58H14Zm0-4H11.33V12.58H14Zm0-4H11.33V8.58H14Zm5.92,15.33h-4V21.25h4Z"/></g></g></svg>