<svg xmlns="http://www.w3.org/2000/svg" viewBox="0 0 32 32"><defs><style>.a{fill:#4c4c4c;}.b{opacity:0;}.c{fill:#fff;}</style></defs><title>icon_setting</title><path class="a" d="M29,17.3V14.7a1.3,1.3,0,0,0-1.3-1.3H27a1.33,1.33,0,0,1-1.24-.92c-.11-.31-.24-.61-.38-.91a1.34,1.34,0,0,1,.23-1.52l.48-.48a1.3,1.3,0,0,0,0-1.84L24.27,5.89a1.3,1.3,0,0,0-1.84,0L22,6.37a1.34,1.34,0,0,1-1.52.23c-.3-.14-.6-.27-.91-.38A1.33,1.33,0,0,1,18.6,5V4.3A1.3,1.3,0,0,0,17.3,3H14.7a1.3,1.3,0,0,0-1.3,1.3V5a1.33,1.33,0,0,1-.92,1.24c-.31.11-.61.24-.91.38a1.34,1.34,0,0,1-1.52-.23l-.48-.48a1.3,1.3,0,0,0-1.84,0L5.89,7.73a1.3,1.3,0,0,0,0,1.84l.48.48a1.34,1.34,0,0,1,.23,1.52c-.14.3-.27.6-.38.91A1.33,1.33,0,0,1,5,13.4H4.3A1.3,1.3,0,0,0,3,14.7v2.6a1.3,1.3,0,0,0,1.3,1.3H5a1.33,1.33,0,0,1,1.24.92c.11.31.24.61.38.91A1.34,1.34,0,0,1,6.37,22l-.48.48a1.3,1.3,0,0,0,0,1.84l1.84,1.84a1.3,1.3,0,0,0,1.84,0l.48-.48a1.34,1.34,0,0,1,1.52-.23c.3.14.6.27.91.38A1.33,1.33,0,0,1,13.4,27v.68A1.3,1.3,0,0,0,14.7,29h2.6a1.3,1.3,0,0,0,1.3-1.3V27a1.33,1.33,0,0,1,.92-1.24c.31-.11.61-.24.91-.38a1.34,1.34,0,0,1,1.52.23l.48.48a1.3,1.3,0,0,0,1.84,0l1.84-1.84a1.3,1.3,0,0,0,0-1.84L25.63,22a1.34,1.34,0,0,1-.23-1.52c.14-.3.27-.6.38-.91A1.33,1.33,0,0,1,27,18.6h.68A1.3,1.3,0,0,0,29,17.3ZM16,23.8A7.8,7.8,0,1,1,23.8,16,7.8,7.8,0,0,1,16,23.8Z"/><g class="b"><path class="c" d="M31,1V31H1V1H31m1-1H0V32H32V0Z"/></g></svg>