<svg xmlns="http://www.w3.org/2000/svg" xmlns:xlink="http://www.w3.org/1999/xlink" viewBox="0 0 36 36"><defs><style>.cls-1{fill:url(#未命名的渐变_60);}.cls-2{fill:none;stroke:#fff;stroke-miterlimit:10;stroke-width:2px;}.cls-3{fill:#fff;}</style><linearGradient id="未命名的渐变_60" x1="18" x2="18" y2="36" gradientUnits="userSpaceOnUse"><stop offset="0" stop-color="#52ffa4"/><stop offset="1" stop-color="#00cab7"/></linearGradient></defs><title>icon_remote</title><g id="图层_2" data-name="图层 2"><g id="图层_1-2" data-name="图层 1"><rect class="cls-1" width="36" height="36" rx="9" ry="9"/><path class="cls-2" d="M27,15.09S27,15,27,15a3,3,0,0,0-4.85-2.35A7,7,0,0,0,9.07,15.08,6,6,0,0,0,10,27H26a6,6,0,0,0,1-11.91Z"/><path class="cls-3" d="M22.38,25a3.5,3.5,0,0,1-3.5-3.5V19h1.69l-2.19-4.38L16.18,19h1.7v2.5a3.51,3.51,0,0,1-3.5,3.5V24a2.51,2.51,0,0,0,2.5-2.5V20H14.57l3.81-7.62L22.18,20h-2.3v1.5a2.5,2.5,0,0,0,2.5,2.5Z"/></g></g></svg>